<svg version="1.2" xmlns="http://www.w3.org/2000/svg" viewBox="0 0 512 512" width="512" height="512"><style>.a{fill:#fff}</style><path fill-rule="evenodd" d="m69 0h374c38.1 0 69 30.9 69 69v374c0 38.1-30.9 69-69 69h-374c-38.1 0-69-30.9-69-69v-374c0-38.1 30.9-69 69-69z"/><path class="a" d="m90.7 146.8c-6.2 0-10.9 6.5-10.9 14.7v190.4c0 7.8 5 14.1 10.9 14.1h64.9c67.8 0 96.3-34.8 96.3-109.6 0-74.9-28.5-109.6-96.3-109.6zm63.8 43.2c42.5 0 53.7 19.4 53.7 66.4 0 47-11.2 66.4-53.7 66.4h-30.9v-132.8zm-70-43.2c-6.2 0-11 6.5-11 14.7v190.4c0 7.8 5 14.1 11 14.1h64.9c67.7 0 96.3-34.8 96.3-109.6 0-74.9-28.6-109.6-96.3-109.6zm63.7 43.2c42.6 0 53.7 19.4 53.7 66.4 0 47-11.1 66.4-53.7 66.4h-30.9v-132.8zm121.5 19.4c0 81.1 125.8 60.8 125.8 97.1 0 11-6.2 17.5-20.4 17.5h-40.7c-11.9 0-20.9-5-24.7-15.6-3.8-10.4-9.1-14.4-15.7-14.4h-13.8c-3.1 0-11.9 2.8-11.9 16.9 0 33.5 32.1 56.4 62 56.4h35.2c57.1 0 73.8-26.4 73.8-63.9 0-81.8-125.8-60.8-125.8-97.1 0-11 6.1-17.6 20.4-17.6h35c11.9 0 20.9 5 24.7 15.7 3.8 10.3 9 14.4 15.7 14.4h13.8c3.1 0 11.9-2.8 11.9-16.9 0-33.5-32.1-56.4-62.1-56.4h-29.5c-57 0-73.7 26.3-73.7 63.9zm-6.3 0c0 81.1 125.8 60.8 125.8 97.1 0 11-6.2 17.5-20.4 17.5h-40.7c-11.9 0-20.9-5-24.7-15.6-3.8-10.4-9-14.4-15.7-14.4h-13.8c-3.1 0-11.9 2.8-11.9 16.9 0 33.5 32.1 56.4 62.1 56.4h35.2c57 0 73.7-26.4 73.7-63.9 0-81.8-125.8-60.8-125.8-97.1 0-11 6.2-17.6 20.4-17.6h35c11.9 0 20.9 5 24.7 15.7 3.8 10.3 9.1 14.4 15.7 14.4h13.8c3.1 0 11.9-2.8 11.9-16.9 0-33.5-32.1-56.4-62.1-56.4h-29.4c-57.1 0-73.8 26.3-73.8 63.9z"/></svg>